<?xml version="1.0" standalone="no"?>
<!DOCTYPE svg PUBLIC "-//W3C//DTD SVG 20010904//EN"
 "http://www.w3.org/TR/2001/REC-SVG-20010904/DTD/svg10.dtd">
<svg version="1.0" xmlns="http://www.w3.org/2000/svg"
 width="888.000000pt" height="888.000000pt" viewBox="0 0 888.000000 888.000000"
 preserveAspectRatio="xMidYMid meet">
<metadata>
Created by potrace 1.11, written by Peter Selinger 2001-2013
</metadata>
<g transform="translate(0.000000,888.000000) scale(0.100000,-0.100000)"
fill="#000000" stroke="none">
<path d="M2818 8064 c-2 -1 -16 -5 -31 -8 -183 -33 -343 -129 -482 -289 -26
-30 -93 -145 -88 -151 4 -3 1 -6 -5 -6 -7 0 -12 -8 -12 -18 0 -10 -4 -22 -9
-27 -20 -21 -53 -191 -54 -274 -1 -97 10 -202 24 -226 4 -5 9 -22 12 -36 4
-14 13 -42 22 -62 8 -20 15 -40 14 -43 0 -4 3 -10 8 -13 4 -3 19 -26 33 -51
26 -50 27 -50 71 -100 58 -67 604 -610 612 -610 9 0 594 585 629 628 9 12 24
34 32 50 8 16 22 34 30 41 9 8 16 22 16 32 0 11 5 19 10 19 6 0 10 8 10 18 0
10 4 22 8 28 11 13 29 67 46 143 15 64 16 258 2 311 -3 14 -9 38 -12 54 -7 42
-62 170 -90 211 -13 19 -22 35 -19 35 12 0 -139 157 -182 190 -75 57 -220 125
-288 136 -11 2 -37 7 -57 12 -33 9 -243 14 -250 6z"/>
<path d="M5718 6965 c-3 -3 -47 -8 -98 -10 -51 -3 -113 -7 -139 -10 -25 -3
-62 -8 -81 -10 -19 -3 -51 -7 -70 -11 -19 -3 -46 -7 -60 -9 -65 -10 -102 -18
-190 -40 -151 -38 -351 -100 -398 -124 -25 -13 -76 -34 -87 -36 -21 -5 -215
-101 -305 -152 -100 -57 -304 -192 -355 -236 -16 -14 -70 -59 -120 -100 -68
-56 -2213 -2189 -2333 -2319 l-22 -25 1126 -1124 c619 -618 1135 -1133 1147
-1145 21 -19 139 -119 162 -137 5 -4 25 -21 44 -37 19 -17 38 -30 42 -30 4 0
14 -6 21 -13 24 -23 118 -87 128 -87 6 0 10 -3 10 -7 0 -5 24 -21 53 -37 28
-16 54 -32 57 -35 11 -13 324 -170 350 -176 3 -1 23 -9 45 -19 49 -21 143 -56
170 -63 11 -2 29 -8 40 -13 36 -15 90 -32 118 -37 16 -2 47 -11 69 -19 23 -8
43 -12 45 -10 3 3 23 -2 45 -10 21 -7 42 -13 46 -13 4 1 12 0 17 -1 15 -4 25
-5 90 -15 33 -5 62 -10 65 -10 13 -3 101 -16 155 -22 135 -15 600 -7 705 13
14 2 41 7 60 9 19 3 73 13 119 21 114 22 116 22 116 24 0 1 9 3 20 5 80 15
298 85 422 136 54 23 108 43 120 46 12 3 28 11 34 19 6 8 17 14 23 14 34 1
460 249 496 290 3 3 44 35 91 72 161 124 319 279 469 458 37 45 49 60 107 140
35 47 67 90 73 97 5 7 10 15 10 19 0 3 10 20 23 37 26 37 28 40 91 154 60 105
117 221 152 306 14 34 31 76 38 92 8 17 26 68 41 115 14 47 29 92 32 100 3 8
7 20 8 25 2 6 8 28 14 50 6 22 11 45 12 50 1 6 6 21 11 35 5 14 11 36 13 50 6
44 16 94 25 130 11 45 19 98 36 245 5 39 9 180 9 315 0 215 -4 287 -20 390 -2
14 -6 46 -9 71 -3 25 -10 66 -15 90 -5 24 -12 58 -15 74 -23 123 -122 456
-138 463 -5 2 -8 8 -8 14 0 42 -147 345 -242 499 -60 97 -163 247 -177 259 -3
3 -19 23 -36 45 -79 108 -264 302 -395 414 -41 35 -76 68 -78 73 -2 4 -10 8
-17 8 -7 0 -15 4 -17 9 -1 4 -41 36 -88 69 -47 34 -90 66 -97 72 -7 5 -15 10
-19 10 -4 0 -21 11 -38 23 -87 66 -345 200 -516 267 -156 62 -357 125 -465
146 -11 2 -42 8 -70 14 -95 19 -153 29 -210 35 -16 2 -50 6 -75 10 -49 7 -213
17 -245 15 -23 -1 -30 -1 -70 3 -16 1 -40 -1 -51 -4 -12 -4 -26 -3 -31 2 -5 5
-12 7 -15 4z"/>
<path d="M997 6844 c-1 -2 -27 -5 -57 -8 -75 -6 -161 -27 -260 -64 -8 -3 -17
-6 -20 -6 -22 -6 -160 -81 -160 -88 0 -4 -5 -8 -10 -8 -33 0 -270 -217 -270
-246 0 -7 -4 -14 -8 -16 -14 -6 -50 -63 -97 -152 -45 -87 -81 -192 -101 -301
-10 -53 -12 -268 -3 -325 5 -30 11 -70 14 -88 3 -19 10 -42 15 -52 6 -10 10
-26 10 -34 0 -9 9 -35 19 -59 11 -23 27 -59 35 -80 47 -117 218 -320 347 -414
61 -44 239 -133 267 -133 12 0 22 -5 22 -10 0 -6 3 -9 8 -8 4 1 30 -3 57 -10
28 -7 61 -15 75 -19 56 -13 316 -11 380 3 36 8 75 17 87 19 12 3 33 9 47 15
13 5 27 6 30 3 3 -4 6 -1 6 5 0 7 7 12 15 12 8 0 23 4 33 9 9 5 48 24 85 42
37 18 73 39 79 46 6 7 17 13 24 13 8 0 14 4 14 8 0 4 14 16 32 26 36 22 858
839 858 853 0 5 -24 33 -52 61 -29 28 -129 127 -223 221 -93 94 -173 171 -179
171 -5 0 -7 2 -4 5 3 3 -22 32 -55 63 -33 31 -74 72 -91 91 -34 38 -125 127
-196 191 -54 49 -195 144 -230 155 -14 4 -29 11 -35 15 -13 10 -152 59 -185
65 -14 3 -36 7 -50 10 -67 14 -264 27 -273 19z"/>
</g>
</svg>
