<?xml version="1.0" standalone="no"?>
<!DOCTYPE svg PUBLIC "-//W3C//DTD SVG 20010904//EN"
 "http://www.w3.org/TR/2001/REC-SVG-20010904/DTD/svg10.dtd">
<svg version="1.0" xmlns="http://www.w3.org/2000/svg"
 width="800.000000pt" height="800.000000pt" viewBox="0 0 800.000000 800.000000"
 preserveAspectRatio="xMidYMid meet">
<metadata>
Created by potrace 1.11, written by Peter Selinger 2001-2013
</metadata>
<g transform="translate(0.000000,800.000000) scale(0.100000,-0.100000)"
fill="#000000" stroke="none">
<path d="M4659 7082 c-109 -40 -221 -139 -261 -229 -22 -50 -25 -63 -27 -131
-1 -41 -2 -42 -28 -36 -82 17 -367 11 -517 -11 l-43 -7 3 39 c3 49 -29 144
-67 200 -51 73 -176 158 -260 177 -24 5 -27 3 -38 -49 -13 -57 -9 -75 15 -75
29 0 110 -49 151 -92 63 -65 84 -130 70 -212 -2 -12 -16 -24 -33 -29 -95 -28
-255 -108 -334 -166 -164 -120 -304 -324 -361 -523 -11 -41 -15 -46 -29 -34
-26 23 -212 120 -371 194 -179 84 -490 191 -604 208 -22 3 -43 8 -46 10 -4 2
-24 6 -44 10 -21 3 -47 8 -59 10 -55 11 -172 18 -286 18 -297 -2 -533 -94
-715 -279 -86 -87 -127 -156 -143 -242 -46 -253 135 -588 533 -988 159 -160
260 -253 385 -355 30 -25 57 -47 60 -50 24 -28 419 -329 525 -401 28 -19 50
-38 50 -44 0 -5 -49 -35 -110 -65 -431 -221 -691 -485 -774 -788 -27 -100 -23
-280 8 -363 45 -118 119 -199 259 -281 116 -68 312 -140 447 -164 17 -3 46 -9
65 -14 52 -14 269 -45 375 -55 161 -13 233 -17 404 -20 114 -2 187 -7 189 -13
10 -32 129 -208 198 -295 113 -142 197 -228 324 -331 53 -43 192 -127 272
-166 97 -46 147 -93 184 -174 24 -53 53 -170 48 -199 -1 -12 5 -17 22 -17 21
0 29 10 25 33 -3 19 33 167 50 207 28 63 40 74 143 124 98 47 250 143 331 209
53 43 273 261 315 312 56 69 149 195 189 257 l44 68 71 1 c39 1 82 2 96 3 14
2 66 6 115 10 50 4 99 9 110 11 11 2 49 7 84 10 35 3 73 7 85 10 11 2 39 7 61
9 108 14 303 56 425 91 370 107 589 264 649 465 8 25 15 86 16 135 10 332
-260 665 -739 915 -71 36 -197 92 -235 102 -7 2 42 47 110 100 68 52 135 105
149 117 14 11 30 24 35 28 26 20 202 164 229 188 6 6 47 41 91 80 251 219 469
443 648 665 41 50 139 195 170 250 36 66 95 204 103 244 21 104 24 153 12 218
-14 81 -52 151 -120 224 -171 183 -392 269 -683 267 -61 -1 -98 -4 -205 -18
-184 -24 -516 -125 -723 -219 -18 -8 -84 -38 -147 -66 -63 -29 -155 -72 -205
-95 -133 -63 -187 -87 -190 -83 -1 2 -12 37 -24 78 -25 82 -83 204 -133 278
-53 79 -197 213 -284 263 -43 26 -120 62 -171 80 l-92 34 -7 42 c-15 103 80
225 210 269 l43 15 -11 56 c-6 31 -16 58 -21 59 -6 1 -31 -5 -56 -14z"/>
</g>
</svg>
