<?xml version="1.0" encoding="UTF-8" standalone="no"?>
<!-- Created with Inkscape (http://www.inkscape.org/) -->

<svg
   xmlns:dc="http://purl.org/dc/elements/1.1/"
   xmlns:cc="http://creativecommons.org/ns#"
   xmlns:rdf="http://www.w3.org/1999/02/22-rdf-syntax-ns#"
   xmlns:svg="http://www.w3.org/2000/svg"
   xmlns="http://www.w3.org/2000/svg"
   xmlns:sodipodi="http://sodipodi.sourceforge.net/DTD/sodipodi-0.dtd"
   xmlns:inkscape="http://www.inkscape.org/namespaces/inkscape"
   version="1.1"
   id="svg815"
   width="682.66669"
   height="682.66669"
   viewBox="0 0 682.66669 682.66669"
   sodipodi:docname="avatar-icon.svg"
   inkscape:export-filename="/home/brad/oughtabee.xyz/img/avatar-icon.png"
   inkscape:export-xdpi="96"
   inkscape:export-ydpi="96"
   inkscape:version="0.92.3 (2405546, 2018-03-11)">
  <metadata
     id="metadata821">
    <rdf:RDF>
      <cc:Work
         rdf:about="">
        <dc:format>image/svg+xml</dc:format>
        <dc:type
           rdf:resource="http://purl.org/dc/dcmitype/StillImage" />
        <dc:title></dc:title>
      </cc:Work>
    </rdf:RDF>
  </metadata>
  <defs
     id="defs819">
    <inkscape:path-effect
       effect="mirror_symmetry"
       start_point="341.33334,0"
       end_point="341.33334,682.66669"
       center_point="341.33334,341.33334"
       id="path-effect4705"
       is_visible="true"
       mode="free"
       discard_orig_path="false"
       fuse_paths="true"
       oposite_fuse="false" />
    <inkscape:path-effect
       effect="mirror_symmetry"
       start_point="341.33334,0"
       end_point="341.33334,682.66669"
       center_point="341.33334,341.33334"
       id="path-effect4703"
       is_visible="true"
       mode="free"
       discard_orig_path="false"
       fuse_paths="true"
       oposite_fuse="false" />
    <inkscape:path-effect
       effect="mirror_symmetry"
       start_point="341.33334,0"
       end_point="341.33334,682.66669"
       center_point="341.33334,341.33334"
       id="path-effect4701"
       is_visible="true"
       mode="free"
       discard_orig_path="false"
       fuse_paths="true"
       oposite_fuse="false" />
    <inkscape:path-effect
       effect="mirror_symmetry"
       start_point="341.33334,0"
       end_point="341.33334,682.66669"
       center_point="341.33334,341.33334"
       id="path-effect4699"
       is_visible="true"
       mode="free"
       discard_orig_path="false"
       fuse_paths="true"
       oposite_fuse="false" />
    <inkscape:path-effect
       effect="mirror_symmetry"
       start_point="341.33334,0"
       end_point="341.33334,682.66669"
       center_point="341.33334,341.33334"
       id="path-effect4697"
       is_visible="true"
       mode="free"
       discard_orig_path="false"
       fuse_paths="true"
       oposite_fuse="false" />
    <inkscape:path-effect
       effect="mirror_symmetry"
       start_point="341.33334,0"
       end_point="341.33334,682.66669"
       center_point="341.33334,341.33334"
       id="path-effect4695"
       is_visible="true"
       mode="free"
       discard_orig_path="false"
       fuse_paths="true"
       oposite_fuse="false" />
    <inkscape:path-effect
       effect="mirror_symmetry"
       start_point="341.33334,0"
       end_point="341.33334,682.66669"
       center_point="341.33334,341.33334"
       id="path-effect4693"
       is_visible="true"
       mode="free"
       discard_orig_path="false"
       fuse_paths="true"
       oposite_fuse="false" />
    <inkscape:path-effect
       effect="mirror_symmetry"
       start_point="341.33334,-5e-06"
       end_point="341.33334,682.66669"
       center_point="341.33334,341.33334"
       id="path-effect988"
       is_visible="true"
       mode="free"
       discard_orig_path="false"
       fuse_paths="true"
       oposite_fuse="false" />
  </defs>
  <sodipodi:namedview
     pagecolor="#ffffff"
     bordercolor="#666666"
     borderopacity="1"
     objecttolerance="10"
     gridtolerance="10"
     guidetolerance="10"
     inkscape:pageopacity="0"
     inkscape:pageshadow="2"
     inkscape:window-width="1914"
     inkscape:window-height="1047"
     id="namedview817"
     showgrid="false"
     inkscape:zoom="0.83972969"
     inkscape:cx="484.67341"
     inkscape:cy="291.32847"
     inkscape:window-x="1080"
     inkscape:window-y="1050"
     inkscape:window-maximized="0"
     inkscape:current-layer="svg815" />
  <path
     style="fill:#161421;stroke:#000000;stroke-width:1.33333337;stroke-opacity:1;fill-opacity:1"
     inkscape:path-effect="#path-effect4693"
     inkscape:original-d="m 648.08034,292.23521 c -32.15576,34.7276 -71.39732,61.95066 -111.00125,87.19684 17.98797,17.06416 51.05155,27.46298 70.89724,47.59685 30.44386,19.07718 57.38352,69.07656 17.04888,93.03308 -45.01945,25.38252 -98.94818,21.46079 -148.81825,19.91825 -52.45457,19.46569 -107.06836,151.18773 -134.72411,138.43231 -8.01893,-26.47813 -11.46296,-36.51669 -43.95959,-51.69412 -18.48622,-8.63393 -52.32727,-37.50804 -62.0882,-70.18686 C 190.03439,543.94375 104.00143,570.16018 58.524963,503.09152 38.189314,440.63013 110.40598,392.04232 159.72339,381.22365 71.945419,333.13479 -55.658228,197.76738 21.984754,150.32704 c 70.032351,-33.02589 157.759946,0.64474 204.220386,36.13607 7.86123,-55.35106 59.33277,-99.053784 115.69491,-100.005631 69.57213,-18.953641 114.85837,27.540001 126.42986,89.886991 7.00691,27.29615 41.45193,-12.75447 61.6419,-8.97944 43.5371,-14.9422 131.76192,-25.57039 164.84069,7.73218 16.67922,58.90851 -30.96131,97.74555 -46.73216,117.138 z"
     d="M 341.33334,677.91905 C 333.41983,651.809 329.81722,641.80119 297.52326,626.71842 279.03704,618.08449 245.19599,589.21038 235.43506,556.53156 190.03439,543.94375 104.00143,570.16018 58.524963,503.09152 38.189314,440.63013 110.40598,392.04232 159.72339,381.22365 71.945419,333.13479 -55.658228,197.76738 21.984754,150.32704 c 70.032351,-33.02589 157.759946,0.64474 204.220386,36.13607 7.83487,-55.16549 58.98814,-98.760621 115.1282,-99.994617 56.14007,1.233996 107.29333,44.829127 115.12821,99.994617 46.46044,-35.49133 134.18803,-69.16196 204.22038,-36.13607 77.64299,47.44034 -49.96066,182.80775 -137.73863,230.89661 49.31741,10.81867 121.53407,59.40648 101.19842,121.86787 -45.47646,67.06866 -131.50942,40.85223 -176.91009,53.44004 -9.76093,32.67882 -43.60198,61.55293 -62.0882,70.18686 -32.29397,15.08277 -35.89658,25.09058 -43.81009,51.20063 z"
     id="path4741" />
  <path
     id="path900"
     style="fill:#fffff8;stroke:#000000;stroke-width:1.33333337;stroke-opacity:1;fill-opacity:1"
     inkscape:path-effect="#path-effect4693"
     inkscape:original-d="m 269.81347,218.42336 c -48.2344,-12.52745 -2.39638,-104.1307 20.05594,-47.49134 6.37059,16.79272 4.41333,53.67864 -20.05594,47.49134 z m -3.39434,114.56797 c 15.88317,-80.89188 149.90793,-64.26028 158.85464,0.5595 -83.92478,-46.79191 -144.58362,-14.01471 -158.85464,-0.5595 z m -51.4355,24.64483 C 158.26387,365.0721 14.762831,226.69788 43.336498,180.63904 84.363137,150.43397 242.91431,201.4404 262.52148,257.7795 c -50.42999,42.05294 -39.84573,88.46475 -47.53785,99.85666 z m 27.40406,80.36044 c 27.91638,-114.34576 173.43291,-70.79553 186.08259,-56.61713 5.9529,53.53321 -129.78552,16.29382 -186.08259,56.61713 z m -1.80384,55.62942 c 49.18004,-58.95487 189.90196,-47.52451 210.34073,-19.19375 0.59531,27.29026 -213.46932,59.77606 -210.34073,19.19375 z m -134.7764,-3.14228 c -19.672523,-52.3676 78.36063,-119.61348 106.86059,-106.52539 -7.71445,45.57807 -5.51562,95.22551 16.51313,140.06478 -37.23719,11.63231 -107.83768,-13.37666 -123.37372,-33.53939 z m 179.19446,62.93467 c 32.14282,-14.04347 89.86139,-13.89048 102.87405,-7.37909 40.28583,42.2666 -48.7526,107.18387 -102.87405,7.37909 z"
     d="m 269.81347,218.42336 c -48.2344,-12.52745 -2.39638,-104.1307 20.05594,-47.49134 6.37059,16.79272 4.41333,53.67864 -20.05594,47.49134 z m 143.03975,0 c 48.2344,-12.52745 2.39638,-104.1307 -20.05594,-47.49134 -6.37059,16.79272 -4.41333,53.67864 20.05594,47.49134 z M 266.41913,332.99133 c 7.42736,-37.82701 40.68903,-54.32832 74.91421,-54.54878 34.22519,0.22046 67.48686,16.72177 74.91422,54.54878 -8.87722,-8.36974 -35.70372,-24.21593 -74.91422,-23.73609 -39.21049,-0.47984 -66.037,15.36635 -74.91421,23.73609 z m -51.4355,24.64483 C 158.26387,365.0721 14.762831,226.69788 43.336498,180.63904 84.363137,150.43397 242.91431,201.4404 262.52148,257.7795 c -50.42999,42.05294 -39.84573,88.46475 -47.53785,99.85666 z m 252.69943,0 c 56.71976,7.43594 200.2208,-130.93828 171.64713,-176.99712 -41.02664,-30.20507 -199.57781,20.80136 -219.18498,77.14046 50.42999,42.05294 39.84573,88.46475 47.53785,99.85666 z M 242.38769,437.9966 c 13.97832,-57.25534 57.44156,-74.92274 98.94565,-76.51209 41.5041,1.58935 84.96733,19.25675 98.94566,76.51209 -24.17142,-17.31301 -62.98749,-20.32768 -98.94566,-22.36768 -35.95816,2.04 -74.77423,5.05467 -98.94565,22.36768 z m -1.80384,55.62942 c 21.77011,-26.09705 61.47779,-38.40218 100.74949,-41.5546 39.27171,3.15242 78.97938,15.45755 100.7495,41.5546 1.53017,19.8485 -48.89477,22.21828 -100.7495,16.2659 -51.85472,5.95238 -102.27966,3.5826 -100.74949,-16.2659 z m -134.7764,-3.14228 c -19.672523,-52.3676 78.36063,-119.61348 106.86059,-106.52539 -7.71445,45.57807 -5.51562,95.22551 16.51313,140.06478 -37.23719,11.63231 -107.83768,-13.37666 -123.37372,-33.53939 z m 471.05179,0 c 19.67252,-52.3676 -78.36063,-119.61348 -106.86059,-106.52539 7.71445,45.57807 5.51562,95.22551 -16.51313,140.06478 37.23719,11.63231 107.83768,-13.37666 123.37372,-33.53939 z m -291.85733,62.93467 c 15.4657,-6.7571 36.85247,-10.22756 56.33143,-11.28449 19.47897,1.05693 40.86573,4.52739 56.33144,11.28449 -17.02602,31.3975 -37.50765,46.49306 -56.33144,51.1203 -18.82378,-4.62724 -39.30541,-19.7228 -56.33143,-51.1203 z" />
</svg>
